<svg t="1700540751200" class="icon" viewBox="0 0 1024 1024" version="1.1" xmlns="http://www.w3.org/2000/svg" p-id="1846" width="48" height="48"><path d="M924.184854 943.789981H715.875417a72.30633 72.30633 0 0 0-66.84831-62.275107v-68.001554h-290.895534v68.001554a72.30633 72.30633 0 0 0-66.848311 62.275107H92.696854a9.941748 9.941748 0 1 0 0 19.883495h831.497942a9.941748 9.941748 0 1 0 0-19.883495zM51.170175 943.789981H35.124194a9.941748 9.941748 0 1 0 0 19.883495h16.045981a9.941748 9.941748 0 1 0 0-19.883495zM988.875806 943.789981h-25.649709a9.941748 9.941748 0 1 0 0 19.883495h25.649709a9.941748 9.941748 0 1 0 0-19.883495zM88.700272 793.629825h839.481165a47.521553 47.521553 0 0 0 47.521553-47.521553v-631.897476c0-29.825243-23.760777-53.884272-52.989514-53.884272H94.168233c-29.328155 0-52.989515 24.059029-52.989515 53.884272v631.897476a47.521553 47.521553 0 0 0 47.521554 47.521553z m414.869126-31.913009a28.870835 28.870835 0 1 1 0-57.761554c15.906796 0 28.831068 12.924272 28.831068 28.831068 0 16.006214-12.924272 28.930485-28.831068 28.930486z m-409.401165-647.406602c0-0.695922 0.298252-0.994175 0.39767-1.093593l828.048155 0.099418c-0.099417 0.099417 0 0.39767 0 0.994175v549.579805H94.168233v-549.579805z" p-id="1847" fill="#5f28dc"></path><path d="M223.00334 150.975379h50.474252v161.85165h-50.474252zM340.226485 150.975379h161.851651v50.474252h-161.851651zM545.314796 201.409864h95.301592v81.979651h50.474253v-81.979651H793.848544v-50.474252H545.314796zM742.350291 349.551845h-95.29165v50.484194h95.301592v102.757903h50.474252v-248.54369h-50.474252zM638.926291 575.627184h-221.999223v50.474253h272.473476V476.597437h-50.474253zM273.517359 485.405825h-50.474252v140.695612h140.695611V575.627184h-90.221359zM742.34035 564.094757h50.474252v62.046447h-50.474252z" p-id="1848" fill="#5f28dc"></path><path d="M560.893515 348.537786v-80.627572H419.074485v248.543689h141.81903v-80.627573h-50.354952v30.15332H469.548738V318.394408h40.989825v30.143378zM322.182214 349.551845h-95.301593v50.484194h95.301593v102.757903h50.474252v-248.54369h-50.474252zM421.182136 538.037437h14.912621v19.883495h-14.912621zM526.882796 538.037437h30.252738v19.883495h-30.252738zM466.357437 538.037437h30.26268v19.883495h-30.26268zM592.369087 538.047379h-4.970873v19.883495h24.854369v-24.854369h-19.883496zM592.369087 496.818951h19.883496v18.123806h-19.883496zM592.369087 463.792466h19.883496v14.912621h-19.883496z" p-id="1849" fill="#5f28dc"></path></svg>