<svg t="1700539930626" class="icon" viewBox="0 0 1026 1024" version="1.1" xmlns="http://www.w3.org/2000/svg" p-id="1452" width="48" height="48"><path d="M645.962662 671.502801c15.366578 0 27.827803-12.461225 27.827803-27.827803 0-15.375349-12.461225-27.829996-27.827803-27.829996h-34.664702c-0.401268 3.786827-0.70167 7.608737-0.925328 11.452574-0.144719 2.655383-0.27409 24.179118-0.324522 44.205225z m0 0M842.903955 449.978929c0 36.008839 29.191675 65.198321 65.200514 65.207092h87.116746a196.189191 196.189191 0 0 0-152.306296-92.453824z m0 0M663.333386 533.466724c29.119315 0 52.719555-23.615589 52.726133-52.730518v-28.198373a216.877499 216.877499 0 0 0-78.723015 80.926698z m0 0" p-id="1453" fill="#5f28dc"></path><path d="M908.104469 541.498655c-50.544377 0-91.513148-40.975349-91.513147-91.519726V422.405482a217.149396 217.149396 0 0 0-74.21917 16.829122v41.499409c-0.006578 43.648274-35.390493 79.040959-79.038766 79.040959h-38.398904a214.750561 214.750561 0 0 0-9.209422 29.739855h30.237602c29.899923 0 54.131666 24.238321 54.131666 54.140436s-24.22955 54.140437-54.131666 54.140437h-43.931135l-35.530826 93.045859h63.632719c7.26448 0 13.156317 5.891837 13.156317 13.156317v75.572077a38.021756 38.021756 0 0 0 39.100574 38.004214c2.938244-0.094287 25.69648-0.223657 67.641011-0.40346h0.359606c34.473936-0.15349 64.564625-23.424822 73.379357-56.754159-54.098775-8.222698-96.839263-50.182578-106.048685-104.119092-9.207229-53.936514 17.190921-107.699803 65.498724-133.396283s107.64937-17.532985 147.23015 20.238801l95.580642-23.784428a201.09869 201.09869 0 0 0-16.967263-77.867854z m0 0" p-id="1454" fill="#5f28dc"></path><path d="M969.884341 734.955717a126.67779 126.67779 0 0 1-45.207298 97.010296l17.8597 26.330175a13.103692 13.103692 0 0 1 2.269465 7.382887v33.833662a35.508899 35.508899 0 0 1 21.626792 39.725499c-3.253996 16.708522-17.910133 28.76848-34.936599 28.726818a35.508899 35.508899 0 0 1-13.002827-68.513714v-29.72889l-15.572693-22.94681a125.901567 125.901567 0 0 1-52.436694 14.851289 102.888976 102.888976 0 0 1-62.808257 74.732266 46.139203 46.139203 0 0 1 7.356574 15.752497c0.265319 1.052505 0.39469 2.133516 0.394689 3.212334v67.844933h38.679572V993.499272a35.504514 35.504514 0 0 1-21.703538-39.675066 35.495743 35.495743 0 0 1 34.859855-28.796985 35.504514 35.504514 0 0 1 34.862047 28.796985 35.504514 35.504514 0 0 1-21.70573 39.675066v29.669687h113.440342c-1.824343-37.951589-5.953233-144.221739 0.754296-216.324933 2.4997-26.860814 25.343452-83.87152 27.939632-90.287418 0.162261-0.39469 0.342064-0.778415 0.530638-1.155563A201.401285 201.401285 0 0 0 1024.522525 646.852248l-75.34842 18.758716a126.096719 126.096719 0 0 1 20.710236 69.344753z m0 0" p-id="1455" fill="#5f28dc"></path><path d="M909.816983 810.05636c39.512805-35.247966 44.906895-95.109208 12.323084-136.856394s-91.956077-51.050895-135.751264-21.27815c-43.784223 29.766167-56.966852 88.41045-30.130158 134.056291 26.834501 45.65242 84.478904 62.654767 131.793405 38.870338l-28.770673-42.415965c-23.854595 8.24024-50.125567-2.449268-61.44-25.010159-11.314433-22.563084-4.179323-50.013739 16.695366-64.205019 20.87469-14.186895 49.027015-10.733362 65.840788 8.091135 16.822544 18.820111 17.103212 47.180745 0.657816 66.329764z m-99.12627-19.710356a64.33439 64.33439 0 0 0 34.859855 8.676591 13.160702 13.160702 0 0 1 13.660642 12.63445 13.156317 13.156317 0 0 1-12.632257 13.660642 90.73254 90.73254 0 0 1-49.105953-12.222218 13.165088 13.165088 0 0 1-6.628591-11.432839 13.160702 13.160702 0 0 1 19.855075-11.314433z m-5.722997-107.004711a63.812522 63.812522 0 0 0-21.780283 28.505354 13.13439 13.13439 0 0 1-10.244385 8.299443 13.149739 13.149739 0 0 1-14.296532-17.782955 90.048411 90.048411 0 0 1 30.750699-40.238595 13.151931 13.151931 0 0 1 18.337713 2.861499 13.151931 13.151931 0 0 1-2.767212 18.346483z m83.007588 5.959812a13.160702 13.160702 0 0 1 5.712035-22.089456 13.138775 13.138775 0 0 1 12.755049 3.348282 90.824634 90.824634 0 0 1 10.678544 12.660763 91.054869 91.054869 0 0 1 7.290792 12.505079 89.653722 89.653722 0 0 1 8.343298 49.952343 13.151931 13.151931 0 0 1-13.046681 11.588522c-0.530638 0-1.061276-0.032891-1.583144-0.100865a13.15851 13.15851 0 0 1-11.494235-14.629824 63.698501 63.698501 0 0 0-5.920343-35.390493 64.685225 64.685225 0 0 0-12.735315-17.8597z m0 0" p-id="1456" fill="#5f28dc"></path><path d="M835.589043 724.068865a13.147546 13.147546 0 0 1 18.269739 3.510544l11.196026 16.498021c4.017062-9.722518 1.199418-20.933893-6.946536-27.606338s-19.690621-7.229396-28.437379-1.37045a23.900642 23.900642 0 0 0 13.301037 43.760103c0.103058 0 0.206116-0.008771 0.309173-0.017542l-11.187255-16.495828a13.156317 13.156317 0 0 1 3.495195-18.27851z m0 0M940.754063 932.43642a9.185302 9.185302 0 1 0-18.372797 0 9.178724 9.178724 0 0 0 9.19188 9.183109 9.198458 9.198458 0 0 0 9.180917-9.183109z m0 0M856.454962 960.549276a9.185302 9.185302 0 1 1-18.374989 0 9.185302 9.185302 0 0 1 9.19188-9.183109 9.183109 9.183109 0 0 1 9.183109 9.183109z m0 0M416.034097 674.423503c-0.043854-20.795752-0.179803-44.349944-0.333294-47.049182-6.097953-116.18782-102.895555-206.790989-219.228094-205.216617-1.868197 0.017542-3.736394 0.061396-5.602398 0.129371a196.325139 196.325139 0 0 0-163.298398 98.371974 200.627255 200.627255 0 0 0-4.591555 194.741996c0.197345 0.377148 0.377148 0.760874 0.541602 1.155563 2.593987 6.407126 25.428968 63.426604 27.939631 90.287418 6.705336 72.094424 2.578638 178.373345 0.752103 216.316162h178.42597V955.324026c0-1.087589 0.135949-2.1686 0.401268-3.212334a45.981328 45.981328 0 0 1 7.358767-15.752497A102.588574 102.588574 0 0 1 173.883313 849.781859a13.149739 13.149739 0 0 1 12.033645-14.184703 13.151931 13.151931 0 0 1 14.184702 12.042416c3.425028 39.227752 36.197413 69.388608 75.572077 69.533327h0.359606c41.953302 0.179803 64.709345 0.317944 67.638818 0.403461a38.023949 38.023949 0 0 0 39.118116-38.004214v-75.572077c0-7.26448 5.885259-13.156317 13.156317-13.156317h63.632719l-42.681285-111.76072a13.331734 13.331734 0 0 1-0.866124-4.659529z m0 0M905.841583 288.401816V34.835734C905.824041 17.379495 891.676615 3.229876 874.209412 3.20137H398.066953c-17.454047 0.026313-31.605859 14.175931-31.632171 31.632172v253.566081c0.026313 17.465011 14.175931 31.61463 31.632171 31.632171h19.118322a31.461139 31.461139 0 0 1 31.211169 25.781996c4.712154 26.689782 16.223931 42.415966 26.091169 51.331563 1.497627-12.540163 4.350355-27.869465 11.742013-41.670441 12.410792-23.185816 34.287555-35.443118 63.264342-35.443118h324.719829c17.462818-0.017542 31.612437-14.164968 31.629979-31.632171z m-68.78561-235.741465h25.411426a15.351229 15.351229 0 0 1 0 30.698073h-25.413619c-8.470475 0-15.349036-6.878561-15.349037-15.349036 0-8.481439 6.878561-15.349036 15.349037-15.349037zM831.041343 123.125585h31.426056a15.351229 15.351229 0 0 1 0 30.698072H831.041343a15.351229 15.351229 0 0 1 0-30.698072z m-147.442844-70.465234h108.846596a15.351229 15.351229 0 0 1 0 30.698073h-108.846596c-8.470475 0-15.349036-6.878561-15.349036-15.349036 0-8.481439 6.878561-15.349036 15.349036-15.349037z m-273.782955 0h229.413277a15.351229 15.351229 0 0 1 0 30.698073H409.815544a15.351229 15.351229 0 0 1 0-30.698073z m0 70.465234h280.222972a15.351229 15.351229 0 0 1 0 30.698072H409.815544a15.351229 15.351229 0 0 1 0-30.698072z m290.750219 74.081027c0 8.472668-6.86979 15.349036-15.349037 15.349037h-189.720668a15.351229 15.351229 0 0 1 0-30.698073H685.225497a15.349036 15.349036 0 0 1 15.349037 15.357807z m-290.750219-15.349036h41.405122a15.351229 15.351229 0 0 1 0 30.698073h-41.405122a15.351229 15.351229 0 0 1 0-30.698073z m147.23015 89.423486h-147.23015c-8.479246 0-15.349036-6.86979-15.349036-15.349036s6.86979-15.349036 15.349036-15.349037h147.23015c8.479246 0 15.349036 6.86979 15.349037 15.349037s-6.86979 15.349036-15.349037 15.349036z m142.450022 0h-86.972026a15.351229 15.351229 0 0 1 0-30.698073h86.972026c8.479246 0 15.349036 6.86979 15.349036 15.349037s-6.86979 15.349036-15.349036 15.349036z m19.563443-132.806441c0-8.470475 6.867597-15.349036 15.349036-15.349036h52.625268c8.470475 0 15.349036 6.878561 15.349036 15.349036 0 8.481439-6.878561 15.349036-15.349036 15.349036h-52.625268c-8.481439 0-15.349036-6.867597-15.349036-15.349036z m26.038544 132.806441h-4.856874c-8.479246 0-15.349036-6.86979-15.349036-15.349036s6.86979-15.349036 15.349036-15.349037h4.856874c8.479246 0 15.349036 6.86979 15.349036 15.349037s-6.86979 15.349036-15.349036 15.349036z m117.369696-58.716642h-120.375915a15.351229 15.351229 0 0 1 0-30.698073h120.375915a15.351229 15.351229 0 0 1 0 30.698073z m0 0" p-id="1457" fill="#5f28dc"></path></svg>