<svg t="1700541053514" class="icon" viewBox="0 0 1024 1024" version="1.1" xmlns="http://www.w3.org/2000/svg" p-id="12561" id="mx_n_1700541053515" width="48" height="48"><path d="M721 633c50.18 0 92.57 42.39 92.57 92.57v29.35h29.35a51 51 0 0 1 37.59 17.29c4.9 5.55 12.83 17.2 10.87 32.84l-0.23 1.81v1.83c0 23.23-10.54 38.23-19.38 46.71a66.19 66.19 0 0 1-45.48 18.15H510.37a70.4 70.4 0 1 1 0-140.8h22.14l6.08-21.29c7.72-27 29.79-45.21 54.9-45.21 9.73 0 15.47 0.11 20.13 2.44l16.8 8.39 14.66-11.73C671.17 644.5 698.12 633 721 633m0-29.35c-33.25 0-66.5 16.63-94.21 38.79-11.09-5.54-22.17-5.54-33.25-5.54-38.79 0-72 27.71-83.13 66.5a99.75 99.75 0 1 0 0 199.51h315.85c49.88 0 94.21-38.79 94.21-94.21 5.54-44.34-33.25-83.13-77.59-83.13 0-66.51-55.42-121.92-121.92-121.92zM868.08 362.45H143.86a30.32 30.32 0 0 1-30.28-30.28V152.5a30.32 30.32 0 0 1 30.28-30.28h724.22a30.32 30.32 0 0 1 30.28 30.28v179.67a30.32 30.32 0 0 1-30.28 30.28z m-695.8-58.71h667.38V180.93H172.29z" p-id="12562" fill="#5f28dc"></path><path d="M854.34 631.1h-38v-58.71h23.29V449.58H172.29v122.81h330.05v58.71H157.61a44.08 44.08 0 0 1-44-44V434.9a44.08 44.08 0 0 1 44-44h696.73a44.08 44.08 0 0 1 44 44v152.17a44.08 44.08 0 0 1-44 44.03zM235.81 212.98h50.37v58.71h-50.37z" p-id="12563" fill="#5f28dc"></path><path d="M235.81 481.63h50.37v58.71h-50.37zM397 899.75H157.61a44.08 44.08 0 0 1-44-44v-152.2a44.08 44.08 0 0 1 44-44h234.63v58.71h-220V841H397z" p-id="12564" fill="#5f28dc"></path><path d="M235.81 750.28h50.37v58.71h-50.37z" p-id="12565" fill="#5f28dc"></path></svg>